<?xml version="1.0" standalone="no"?>
<svg xmlns="http://www.w3.org/2000/svg" viewBox="0 0 190.848 48" width="190.848" height="48"><rect fill="none" stroke="#72edca" stroke-width="3" width="187.848" height="45" x="1.5" y="1.5"></rect><g fill="#0019ff" color="#0019ff" transform="translate(12, 12) scale(0.48)"><svg width="24.0" height="50.0" x="0.0" y="0.0" viewBox="0 0 24 50"><path fill="currentColor" fill-rule="nonzero" d="M6.12 23.8l6.06-6.22 6.06 6.23 5.36-5.5-6.06-6.23 6.06-6.22-5.36-5.5-6.06 6.23L6.12.36.77 5.86l6.06 6.22-6.06 6.23 5.35 5.49zm0-21.5l6.06 6.23 6.06-6.23 3.46 3.56-6.06 6.22 6.06 6.23-3.46 3.56-6.06-6.23-6.06 6.22-3.46-3.56 6.06-6.23-6.06-6.22L6.12 2.3zM23.6 31.61l-6.06 6.21 6.06 6.23-5.36 5.5-6.06-6.23-6.06 6.23-5.35-5.5 6.06-6.22-6.06-6.22 5.35-5.5 6.06 6.23 6.06-6.23 5.36 5.5zM8.73 37.84l-6.06 6.22 3.46 3.56 6.06-6.22 6.06 6.22 3.46-3.56-6.06-6.22 6.06-6.22-3.46-3.56-6.06 6.23-6.06-6.23-3.46 3.56 6.06 6.22z"></path></svg></g><path fill="#0019ff" fill-rule="nonzero" d="M10.99 0.29Q12.24 0.29 13.28 0.80Q14.33 1.32 14.94 2.26Q15.55 3.19 15.55 4.34L15.55 4.34Q15.55 7.39 12.79 8.18L12.79 8.18L12.79 8.28Q15.94 9 15.94 12.41L15.94 12.41Q15.94 13.70 15.30 14.70Q14.66 15.70 13.56 16.25Q12.46 16.80 11.14 16.80L11.14 16.80L0 16.80L0 0.29L10.99 0.29ZM5.30 3.91L5.30 6.72L8.95 6.72Q9.48 6.72 9.83 6.35Q10.18 5.98 10.18 5.42L10.18 5.42L10.18 5.18Q10.18 4.66 9.82 4.28Q9.46 3.91 8.95 3.91L8.95 3.91L5.30 3.91ZM5.30 10.13L5.30 12.96L9.34 12.96Q9.86 12.96 10.21 12.59Q10.56 12.22 10.56 11.66L10.56 11.66L10.56 11.42Q10.56 10.87 10.21 10.50Q9.86 10.13 9.34 10.13L9.34 10.13L5.30 10.13ZM24.89 3.84Q28.37 3.84 30.20 5.47Q32.04 7.10 32.04 10.46L32.04 10.46L32.04 11.28L22.54 11.28Q22.54 12.65 23.15 13.34Q23.76 14.04 25.08 14.04L25.08 14.04Q26.28 14.04 26.84 13.54Q27.41 13.03 27.41 12.19L27.41 12.19L32.04 12.19Q32.04 14.50 30.29 15.79Q28.54 17.09 25.18 17.09L25.18 17.09Q21.65 17.09 19.70 15.44Q17.76 13.80 17.76 10.46L17.76 10.46Q17.76 7.20 19.66 5.52Q21.55 3.84 24.89 3.84L24.89 3.84ZM25.08 6.89Q22.82 6.89 22.56 9.02L22.56 9.02L27.22 9.02Q27.22 8.04 26.65 7.46Q26.09 6.89 25.08 6.89L25.08 6.89ZM40.37 3.84Q42.91 3.84 44.68 4.84Q46.44 5.83 46.44 7.92L46.44 7.92L42 7.92Q42 7.22 41.38 6.94L41.38 6.94Q40.94 6.70 40.30 6.70L40.30 6.70Q38.57 6.70 38.57 7.51L38.57 7.51Q38.57 7.97 39.17 8.16Q39.77 8.35 41.14 8.57L41.14 8.57Q42.82 8.81 43.94 9.13Q45.07 9.46 45.91 10.28Q46.75 11.11 46.75 12.60L46.75 12.60Q46.75 15.02 44.94 16.06Q43.13 17.09 40.20 17.09L40.20 17.09Q38.52 17.09 37.03 16.62Q35.54 16.15 34.61 15.17Q33.67 14.18 33.67 12.67L33.67 12.67L38.11 12.67L38.11 12.77Q38.14 13.58 38.80 13.91Q39.46 14.23 40.20 14.23L40.20 14.23Q42.19 14.23 42.19 13.30L42.19 13.30Q42.19 12.82 41.57 12.60Q40.94 12.38 39.53 12.14L39.53 12.14Q37.82 11.86 36.73 11.52Q35.64 11.18 34.82 10.38Q34.01 9.58 34.01 8.14L34.01 8.14Q34.01 5.81 35.77 4.82Q37.54 3.84 40.37 3.84L40.37 3.84ZM54.77 4.13L57.46 4.13L57.46 7.37L54.77 7.37L54.77 12.19Q54.77 13.06 55.06 13.45Q55.34 13.85 56.11 13.85L56.11 13.85L57.46 13.85L57.46 16.66Q56.88 16.85 55.97 16.97Q55.06 17.09 54.38 17.09L54.38 17.09Q52.27 17.09 51.13 16.32Q49.99 15.55 49.99 13.70L49.99 13.70L49.99 7.37L48.22 7.37L48.22 4.13L50.18 4.13L51.22 0.29L54.77 0.29L54.77 4.13ZM76.30 0Q78.67 0 80.57 0.72Q82.46 1.44 83.58 2.84Q84.70 4.25 84.70 6.26L84.70 6.26L79.63 6.26Q79.63 5.23 78.72 4.60Q77.81 3.96 76.51 3.96L76.51 3.96Q74.64 3.96 73.68 4.96Q72.72 5.95 72.72 7.78L72.72 7.78L72.72 9.31Q72.72 11.14 73.68 12.13Q74.64 13.13 76.51 13.13L76.51 13.13Q77.81 13.13 78.72 12.52Q79.63 11.90 79.63 10.94L79.63 10.94L75.89 10.94L75.89 7.58L84.70 7.58L84.70 16.80L81.96 16.80L81.43 15.17Q79.18 17.09 75.53 17.09L75.53 17.09Q71.42 17.09 69.36 14.94Q67.30 12.79 67.30 8.54L67.30 8.54Q67.30 4.34 69.64 2.17Q71.98 0 76.30 0L76.30 0ZM94.20 3.84Q97.68 3.84 99.52 5.47Q101.35 7.10 101.35 10.46L101.35 10.46L101.35 11.28L91.85 11.28Q91.85 12.65 92.46 13.34Q93.07 14.04 94.39 14.04L94.39 14.04Q95.59 14.04 96.16 13.54Q96.72 13.03 96.72 12.19L96.72 12.19L101.35 12.19Q101.35 14.50 99.60 15.79Q97.85 17.09 94.49 17.09L94.49 17.09Q90.96 17.09 89.02 15.44Q87.07 13.80 87.07 10.46L87.07 10.46Q87.07 7.20 88.97 5.52Q90.86 3.84 94.20 3.84L94.20 3.84ZM94.39 6.89Q92.14 6.89 91.87 9.02L91.87 9.02L96.53 9.02Q96.53 8.04 95.96 7.46Q95.40 6.89 94.39 6.89L94.39 6.89ZM109.92 3.84Q112.82 3.84 114.65 4.81Q116.47 5.78 116.47 7.97L116.47 7.97L116.47 12.91Q116.47 13.32 116.66 13.58Q116.86 13.85 117.24 13.85L117.24 13.85L118.10 13.85L118.10 16.61Q118.03 16.66 117.73 16.76Q117.43 16.87 116.88 16.98Q116.33 17.09 115.61 17.09L115.61 17.09Q114.22 17.09 113.32 16.67Q112.42 16.25 112.08 15.50L112.08 15.50Q111.17 16.22 110.04 16.66Q108.91 17.09 107.40 17.09L107.40 17.09Q102.94 17.09 102.94 13.54L102.94 13.54Q102.94 11.69 103.93 10.72Q104.93 9.74 106.80 9.38Q108.67 9.02 111.70 9.02L111.70 9.02L111.70 8.40Q111.70 7.66 111.18 7.27Q110.66 6.89 109.85 6.89L109.85 6.89Q109.10 6.89 108.56 7.15Q108.02 7.42 108.02 7.99L108.02 7.99L108.02 8.09L103.32 8.09Q103.30 7.97 103.30 7.75L103.30 7.75Q103.30 5.95 105.01 4.90Q106.73 3.84 109.92 3.84L109.92 3.84ZM111.70 11.28Q109.66 11.28 108.68 11.72Q107.71 12.17 107.71 12.91L107.71 12.91Q107.71 14.11 109.34 14.11L109.34 14.11Q110.28 14.11 110.99 13.61Q111.70 13.10 111.70 12.36L111.70 12.36L111.70 11.28ZM127.37 3.82Q127.92 3.82 128.35 3.95Q128.78 4.08 128.78 4.10L128.78 4.10L128.78 8.11L127.25 8.11Q125.76 8.11 125.10 8.88Q124.44 9.65 124.44 11.16L124.44 11.16L124.44 16.80L119.66 16.80L119.66 4.13L123.58 4.13L123.89 6.05Q124.32 4.94 125.26 4.38Q126.19 3.82 127.37 3.82L127.37 3.82ZM136.94 3.84Q139.49 3.84 141.25 4.84Q143.02 5.83 143.02 7.92L143.02 7.92L138.58 7.92Q138.58 7.22 137.95 6.94L137.95 6.94Q137.52 6.70 136.87 6.70L136.87 6.70Q135.14 6.70 135.14 7.51L135.14 7.51Q135.14 7.97 135.74 8.16Q136.34 8.35 137.71 8.57L137.71 8.57Q139.39 8.81 140.52 9.13Q141.65 9.46 142.49 10.28Q143.33 11.11 143.33 12.60L143.33 12.60Q143.33 15.02 141.52 16.06Q139.70 17.09 136.78 17.09L136.78 17.09Q135.10 17.09 133.61 16.62Q132.12 16.15 131.18 15.17Q130.25 14.18 130.25 12.67L130.25 12.67L134.69 12.67L134.69 12.77Q134.71 13.58 135.37 13.91Q136.03 14.23 136.78 14.23L136.78 14.23Q138.77 14.23 138.77 13.30L138.77 13.30Q138.77 12.82 138.14 12.60Q137.52 12.38 136.10 12.14L136.10 12.14Q134.40 11.86 133.31 11.52Q132.22 11.18 131.40 10.38Q130.58 9.58 130.58 8.14L130.58 8.14Q130.58 5.81 132.35 4.82Q134.11 3.84 136.94 3.84L136.94 3.84Z" transform="translate(35.519999999999996 15.6)"></path></svg>